<svg xmlns="http://www.w3.org/2000/svg" viewBox="0 0 32 32"><g fill="none" fill-rule="evenodd"><path fill="#0F6BAF" d="M0 31.997h32V0H0z"/><path fill="#AFC2E1" d="M25.84 17.213c.1.64-.23 1.33-.84 1.67l-1.28.72H32v-2.4h-6.16m-17.58 2.35l-1.03-.67a1.45 1.45 0 01-.51-1.66H.02v2.39h8.23l.01-.06"/><path fill="#FFF" d="M17.41 5.493c.75 0 1.45-.6 1.56-1.33.1-.74-.42-1.33-1.17-1.33-.74 0-1.44.6-1.55 1.33-.1.74.41 1.33 1.16 1.33"/><path fill="#FFF" d="M22.1 4.973c-.28-.6-1.03-.81-1.7-.46l-3.07 1.6-2.6-1.6c-.56-.35-1.38-.15-1.83.46-.45.6-.35 1.38.22 1.73l1.8 1.1-.47 3.18a.5.5 0 00.03.24c.1.23.4.3.64.18l1.55-.81 1.31.8c.21.14.53.06.7-.17a.56.56 0 00.1-.24l.46-3.17 2.12-1.1c.67-.36 1-1.13.73-1.74m-5.98 9.38c.75 0 1.45-.6 1.56-1.34.1-.73-.41-1.33-1.17-1.33-.75 0-1.44.6-1.55 1.33-.1.74.41 1.34 1.16 1.34"/><path fill="#FFF" d="M20.8 13.823c-.27-.6-1.03-.81-1.7-.46l-3.07 1.6-2.6-1.6c-.56-.35-1.38-.14-1.83.46-.45.6-.35 1.38.22 1.73l1.8 1.11-.47 3.17c-.01.08 0 .17.03.24.1.23.4.3.64.18l1.55-.81 1.31.8c.21.14.53.06.7-.17a.52.52 0 00.1-.24l.46-3.17 2.13-1.1c.66-.36.99-1.13.72-1.74M9 9.923c.75 0 1.44-.6 1.55-1.33.11-.74-.41-1.34-1.16-1.34s-1.45.6-1.55 1.34c-.11.73.4 1.33 1.16 1.33"/><path fill="#FFF" d="M13.67 9.403c-.27-.6-1.03-.82-1.7-.47l-3.07 1.61-2.6-1.6c-.56-.36-1.38-.15-1.82.46-.45.6-.35 1.38.21 1.73l1.8 1.1-.46 3.18a.5.5 0 00.03.24c.1.23.39.3.64.17l1.55-.8 1.3.8c.22.14.53.06.7-.17a.55.55 0 00.1-.24l.47-3.17 2.12-1.11c.67-.35 1-1.13.73-1.73m-5.98 9.36c.75 0 1.45-.6 1.55-1.33.11-.74-.4-1.33-1.16-1.33-.75 0-1.44.6-1.55 1.33-.11.74.4 1.33 1.16 1.33"/><path fill="#FFF" d="M12.37 18.253c-.27-.6-1.03-.81-1.7-.46l-3.07 1.6-2.6-1.6c-.56-.35-1.38-.15-1.82.46-.45.6-.35 1.38.21 1.73l1.8 1.1-.46 3.18a.5.5 0 00.03.24c.1.23.39.3.64.17l1.55-.8 1.3.8c.22.14.53.06.7-.17a.54.54 0 00.1-.24l.47-3.17 2.12-1.11c.67-.35 1-1.12.73-1.73m12.17-8.33c-.75 0-1.27-.6-1.16-1.33.1-.74.8-1.34 1.55-1.34s1.27.6 1.16 1.34a1.6 1.6 0 01-1.55 1.33"/><path fill="#FFF" d="M20.02 9.403c.44-.6 1.26-.82 1.83-.47l2.6 1.61 3.06-1.6c.67-.36 1.43-.15 1.7.46.26.6-.06 1.38-.73 1.73l-2.12 1.1-.47 3.18a.52.52 0 01-.1.24c-.17.23-.48.3-.7.17l-1.3-.8-1.55.8c-.25.14-.54.06-.64-.17a.44.44 0 01-.03-.24l.46-3.17-1.8-1.11c-.56-.35-.66-1.13-.21-1.73m3.22 9.37c-.75 0-1.27-.6-1.16-1.33.1-.74.8-1.33 1.55-1.33s1.27.6 1.17 1.33a1.6 1.6 0 01-1.56 1.33"/><path fill="#FFF" d="M18.72 18.253c.44-.6 1.26-.81 1.83-.46l2.6 1.6 3.06-1.6c.67-.35 1.43-.15 1.7.46.27.6-.06 1.38-.73 1.73l-2.12 1.1-.47 3.18a.51.51 0 01-.1.24c-.17.23-.48.3-.7.17l-1.3-.8-1.55.8c-.25.14-.54.06-.64-.17a.43.43 0 01-.03-.24l.46-3.17-1.8-1.11c-.56-.35-.66-1.12-.21-1.73m-3.9 4.95c.74 0 1.44-.6 1.55-1.34.1-.73-.42-1.33-1.16-1.33-.75 0-1.45.6-1.56 1.33-.1.74.41 1.34 1.16 1.34"/><path fill="#FFF" d="M19.5 22.673c-.27-.6-1.03-.81-1.7-.46l-3.07 1.6-2.6-1.6c-.56-.35-1.38-.14-1.83.46-.45.61-.35 1.39.22 1.73l1.8 1.11-.47 3.17c-.01.09 0 .17.03.24.1.23.4.31.65.18l1.54-.81 1.31.8c.21.14.53.06.7-.17a.54.54 0 00.1-.24l.46-3.17 2.13-1.1c.66-.36 1-1.13.72-1.74"/></g></svg>